<mxfile host="app.diagrams.net" agent="Mozilla/5.0 (Windows NT 10.0; Win64; x64) AppleWebKit/537.36 (KHTML, like Gecko) Chrome/135.0.0.0 Safari/537.36" version="26.2.14">
  <diagram name="Página-1" id="ZfuYBb1uDBB9Q9XqHdRm">
    <mxGraphModel grid="1" page="1" gridSize="10" guides="1" tooltips="1" connect="1" arrows="1" fold="1" pageScale="1" pageWidth="827" pageHeight="1169" math="0" shadow="0">
      <root>
        <mxCell id="0" />
        <mxCell id="1" parent="0" />
        <mxCell id="Xy3kY2UkPaOCshvsATr--7" style="edgeStyle=orthogonalEdgeStyle;rounded=0;orthogonalLoop=1;jettySize=auto;html=1;exitX=0.5;exitY=0.5;exitDx=0;exitDy=0;exitPerimeter=0;entryX=0;entryY=0.5;entryDx=0;entryDy=0;" edge="1" parent="1" source="Xy3kY2UkPaOCshvsATr--1" target="Xy3kY2UkPaOCshvsATr--2">
          <mxGeometry relative="1" as="geometry" />
        </mxCell>
        <mxCell id="Xy3kY2UkPaOCshvsATr--8" style="edgeStyle=orthogonalEdgeStyle;rounded=0;orthogonalLoop=1;jettySize=auto;html=1;exitX=0.5;exitY=0.5;exitDx=0;exitDy=0;exitPerimeter=0;" edge="1" parent="1" source="Xy3kY2UkPaOCshvsATr--1" target="Xy3kY2UkPaOCshvsATr--3">
          <mxGeometry relative="1" as="geometry" />
        </mxCell>
        <mxCell id="Xy3kY2UkPaOCshvsATr--9" style="edgeStyle=orthogonalEdgeStyle;rounded=0;orthogonalLoop=1;jettySize=auto;html=1;exitX=0.5;exitY=0.5;exitDx=0;exitDy=0;exitPerimeter=0;" edge="1" parent="1" source="Xy3kY2UkPaOCshvsATr--1" target="Xy3kY2UkPaOCshvsATr--4">
          <mxGeometry relative="1" as="geometry" />
        </mxCell>
        <mxCell id="Xy3kY2UkPaOCshvsATr--10" style="edgeStyle=orthogonalEdgeStyle;rounded=0;orthogonalLoop=1;jettySize=auto;html=1;exitX=0.5;exitY=0.5;exitDx=0;exitDy=0;exitPerimeter=0;entryX=0;entryY=0.5;entryDx=0;entryDy=0;" edge="1" parent="1" source="Xy3kY2UkPaOCshvsATr--1" target="Xy3kY2UkPaOCshvsATr--5">
          <mxGeometry relative="1" as="geometry" />
        </mxCell>
        <mxCell id="Xy3kY2UkPaOCshvsATr--1" value="Técnico de Laboratorio" style="shape=umlActor;verticalLabelPosition=bottom;verticalAlign=top;html=1;" vertex="1" parent="1">
          <mxGeometry x="60" y="310" width="30" height="60" as="geometry" />
        </mxCell>
        <mxCell id="Xy3kY2UkPaOCshvsATr--2" value="Gestionar Equipos" style="ellipse;whiteSpace=wrap;html=1;" vertex="1" parent="1">
          <mxGeometry x="190" y="190" width="140" height="70" as="geometry" />
        </mxCell>
        <mxCell id="Xy3kY2UkPaOCshvsATr--3" value="Gestionar Informes Técnicos" style="ellipse;whiteSpace=wrap;html=1;" vertex="1" parent="1">
          <mxGeometry x="190" y="270" width="140" height="70" as="geometry" />
        </mxCell>
        <mxCell id="Xy3kY2UkPaOCshvsATr--4" value="Gestionar Cotizaciones" style="ellipse;whiteSpace=wrap;html=1;" vertex="1" parent="1">
          <mxGeometry x="190" y="350" width="140" height="70" as="geometry" />
        </mxCell>
        <mxCell id="Xy3kY2UkPaOCshvsATr--5" value="Gestión Personal" style="ellipse;whiteSpace=wrap;html=1;" vertex="1" parent="1">
          <mxGeometry x="190" y="430" width="140" height="70" as="geometry" />
        </mxCell>
      </root>
    </mxGraphModel>
  </diagram>
</mxfile>
